#!OML:ASF E:/inclinewalkrobotboard/Project1/Captureday1/Session1/subject1.ASF
:FULLY-SPECIFIED
:DEGREES
13
root 0 0 0 1.833704116942668 -3.965599998637076 2.15125553571891
lowerback 12.022913195036338 1.1943054032421578 -0.041295861833565595
upperback -4.450998905463532 1.5096095274076582 -0.8656760184136606
thorax -11.5839305286947 0.6990158541411073 -1.1828772633093656
lowerneck -6.2570457873918155 1.743710654407465 4.833901118104629
upperneck 18.207928270571458 3.2733193608664974 -8.490238167468162
head 6.711149379516354 1.2163092750211062 -3.295155471407683
rclavicle -2.242305392482229E-15 -1.156195395298821E-15
rhumerus 23.290221969139445 17.868741140396608 -48.49658094857801
rradius 74.92821592330446
rwrist 25.814785809209972
rhand -34.82679556252401 -58.13428756327174
rfingers 7.12502
rthumb -7.969624108835481 -88.04680520881533
lclavicle -1.213691478252894E-15 -9.047114761092047E-16
lhumerus 22.404899057501474 -14.45250622048154 45.725174369214
lradius 71.29336054834954
lwrist -21.449483911927672
lhand -45.27890859828615 -69.13702096809828
lfingers 7.125020000000012
lthumb -18.053376863107538 -39.88920715802476
rfemur -24.513161535023215 -0.9926753816213632 18.41623333658
rtibia 46.335017033646615
rfoot -32.35539166127075 -17.790159912872955
rtoes -22.6568722006248
lfemur -27.33562472503941 2.064601540819724 -15.135606430662126
ltibia 46.65432631244789
lfoot -31.566768460747063 2.90388686634007
ltoes -21.190877585632116
14
root 0 0 0 1.8421405328674894 -3.96665080439936 2.165209381880753
lowerback 12.021429248801743 1.1918220313568275 -0.05692002212493452
upperback -4.4498612206088755 1.5043155955085523 -0.8672606762680867
thorax -11.58120027070625 0.6968932278918867 -1.1746510561039314
lowerneck -6.261835561052238 1.7439161778946592 4.8297089194382385
upperneck 18.20022221869495 3.2734666485709623 -8.485190223685478
head 6.709418464512787 1.2166639153591974 -3.2929711340100436
rclavicle -2.227782650806591E-15 -1.1445195250979032E-15
rhumerus 23.33954047878408 17.938000100934225 -48.54086875946298
rradius 74.96848760353997
rwrist 25.765649899583043
rhand -34.827191974704576 -58.128583034576955
rfingers 7.12502
rthumb -7.9700968730063 -88.03905486995984
lclavicle -1.1880948113416787E-15 -8.866080209714098E-16
lhumerus 22.42296904535067 -14.49178616335766 45.739425177146714
lradius 71.31567435912613
lwrist -21.424895545091942
lhand -45.27883103945906 -69.09998085768315
lfingers 7.125020000000012
lthumb -18.053202856830765 -39.85281581716421
rfemur -24.629230170008483 -0.9521693465729726 18.444291507922433
rtibia 45.97682910569085
rfoot -32.6122937684691 -17.867455665040026
rtoes -22.72903000267538
lfemur -27.22472337569643 1.988990025840684 -15.318976290738592
ltibia 45.78566609526964
lfoot -32.20850855462886 3.3352896978755195
ltoes -21.11975282227059
15
root 0 0 0 1.8514690783553243 -3.958633032232132 2.1778608342263257
lowerback 12.014404496608675 1.1863763550869728 -0.07483978706367944
upperback -4.449952229155699 1.4949683230798987 -0.8669564001759246
thorax -11.576201566049066 0.6928052075394515 -1.1628182961281326
lowerneck -6.263319934997245 1.7443936576562764 4.825803537974699
upperneck 18.19257770309049 3.274113649070184 -8.480419527989406
head 6.707186395694201 1.2172252659376999 -3.2908672630483915
rclavicle -2.2012423678737018E-15 -1.1267053807580683E-15
rhumerus 23.370908230984902 17.985032059332546 -48.57463210444274
rradius 74.9934889779725
rwrist 25.728828336777774
rhand -34.82610550529937 -58.11851633149671
rfingers 7.12502
rthumb -7.969042508996246 -88.02725771677635
lclavicle -1.152660504941199E-15 -8.623488007701601E-16
lhumerus 22.436046230315704 -14.527177363422616 45.754408624724746
lradius 71.33395324228059
lwrist -21.400930653304947
lhand -45.27726253105861 -69.06020235111112
lfingers 7.125020000000012
lthumb -18.05151910026998 -39.8129790925166
rfemur -24.67870719715711 -0.8837366784519469 18.50504767393311
rtibia 45.463324718673505
rfoot -32.91537462705196 -17.927841582564533
rtoes -22.868557066596246
lfemur -27.014895605569393 1.8807034630843935 -15.493654249004315
ltibia 44.8016847379933
lfoot -32.74869071272987 3.7195368059898293
ltoes -21.112994418445645
16
root 0 0 0 1.85926912798389 -3.943188520020154 2.1876642274937588
lowerback 12.003775767189888 1.1791062802671295 -0.09214871906723476
upperback -4.451141142462822 1.48337078944092 -0.865128414223378
thorax -11.570198615861422 0.6875592635359336 -1.149619213998333
lowerneck -6.261345660571711 1.745287453086515 4.823133584226534
upperneck 18.185807151123516 3.275426975274396 -8.477029629122084
head 6.704670177191929 1.218030239646625 -3.2892972185029343
rclavicle -2.1692879708116304E-15 -1.1089190691821055E-15
rhumerus 23.37762173674283 17.99968008942181 -48.590561938874835
rradius 74.99802828885751
rwrist 25.712298148524617
rhand -34.8238071937362 -58.10651763148402
rfingers 7.125019999999999
rthumb -7.966755169116386 -88.01417217984277
lclavicle -1.1145123277785543E-15 -8.405715706995533E-16
lhumerus 22.44209586215277 -14.551758113797518 45.76681466136876
lradius 71.34489934410479
lwrist -21.382627347312933
lhand -45.2746297077568 -69.0260530218313
lfingers 7.125020000000012
lthumb -18.04878312004659 -39.77847676527881
rfemur -24.672883651783405 -0.8094776440519431 18.57299900877527
rtibia 44.94873159056259
rfoot -33.17131292731624 -17.96009127860375
rtoes -23.025927413380504
lfemur -26.755125722767186 1.768132121486648 -15.631835343432792
ltibia 43.92009614803593
lfoot -33.0850870748495 3.9809116125268913
ltoes -21.152147393930733
17
root 0 0 0 1.8647951218819099 -3.9116927708842963 2.1932809625855767
lowerback 11.987067915625442 1.1666940091946119 -0.11085872523582241
upperback -4.4542427356206895 1.4649886030904629 -0.8596803857661898
thorax -11.562643753111114 0.6789910989676924 -1.131123467861629
lowerneck -6.253554199134555 1.7482421067421912 4.8234420365650195
upperneck 18.177470113331555 3.279848307269562 -8.47749908307214
head 6.7005916774952965 1.2201069929688253 -3.2890753065589733
rclavicle -2.136824187491166E-15 -1.084239667579416E-15
rhumerus 23.336429682647733 17.95029808264441 -48.57014493524239
rradius 74.9620588087126
rwrist 25.73696620449293
rhand -34.819272039091814 -58.091278537879674
rfingers 7.125019999999999
rthumb -7.962524135704848 -87.99967872503386
lclavicle -1.0739721016885222E-15 -8.164209859734697E-16
lhumerus 22.44076386138341 -14.562339468139548 45.774081624411195
lradius 71.34747164258614
lwrist -21.373671992858036
lhand -45.27062746453001 -69.00027332452385
lfingers 7.125020000000012
lthumb -18.0450742367674 -39.75283942549042
rfemur -24.602672806595084 -0.7185675190440319 18.662733108638648
rtibia 44.375105513733466
rfoot -33.392712846249935 -17.95678571875257
rtoes -23.197795840678474
lfemur -26.40860244711012 1.6595957307371583 -15.696410041464143
ltibia 43.316652599757546
lfoot -33.077726285105996 4.016853772474263
ltoes -21.290077377377788
18
root 0 0 0 1.8625715321784284 -3.8927331097193023 2.1949044737774286
lowerback 11.978144573621924 1.160789422003742 -0.11812240368736215
upperback -4.456678856655789 1.4563790916656916 -0.8572384444966293
thorax -11.55958677278663 0.6748836465152275 -1.1236360825777725
lowerneck -6.245694926951191 1.7497238449122274 4.824911613765832
upperneck 18.176322916650356 3.282130406447127 -8.479092958322438
head 6.6989150863684115 1.2211402440534336 -3.289535219078304
rclavicle -2.1097003438831184E-15 -1.087057951456931E-15
rhumerus 23.301210162159684 17.90669682551821 -48.548919881848136
rradius 74.9333825988906
rwrist 25.76165315492719
rhand -34.81680710351731 -58.085543877181635
rfingers 7.125019999999999
rthumb -7.959670094666135 -87.9936145015408
lclavicle -1.0586380505890615E-15 -8.209981397306189E-16
lhumerus 22.432212642394084 -14.556665127714025 45.776482026683524
lradius 71.34086389505435
lwrist -21.373078528830774
lhand -45.268298394475046 -68.99536145923011
lfingers 7.125020000000012
lthumb -18.042332253092013 -39.74627376566242
rfemur -24.543948733180073 -0.7054067320731079 18.665368590262403
rtibia 44.32488623089408
rfoot -33.33685039265867 -17.924006631739722
rtoes -23.25686683656646
lfemur -26.234519775412934 1.6315399624588274 -15.702844555493277
ltibia 43.263126532078864
lfoot -32.94750246459037 3.921412297904153
ltoes -21.383657226245823
19
root 0 0 0 1.8575128895252289 -3.876892075628546 2.1957816890832906
lowerback 11.972883424295382 1.156181508484829 -0.1227221868789965
upperback -4.458733197851995 1.4496988447786276 -0.8554652401478547
thorax -11.558725645912357 0.6716915811153089 -1.1184528725494378
lowerneck -6.238418000735853 1.751842637253626 4.8278277943956
upperneck 18.175438677161996 3.2852564576400836 -8.482662367083
head 6.697345953053661 1.222485647538524 -3.2907703563424553
rclavicle -2.098641100739215E-15 -1.088881098116785E-15
rhumerus 23.260370428993312 17.85292250144682 -48.51894409858072
rradius 74.89972092843715
rwrist 25.795762623329114
rhand -34.81484413099017 -58.083329072631386
rfingers 7.125019999999999
rthumb -7.957686229070626 -87.99220333605092
lclavicle -1.0548168579842531E-15 -8.260369655268021E-16
lhumerus 22.425086052584177 -14.544732513357888 45.77313495752784
lradius 71.33313796616284
lwrist -21.379759861022592
lhand -45.26725466411831 -69.00236262531557
lfingers 7.125020000000012
lthumb -18.041320480552486 -39.75304300671887
rfemur -24.519948220277932 -0.725624453504234 18.63665685042093
rtibia 44.484649740249026
rfoot -33.18823673978005 -17.883636689545312
rtoes -23.24028340848894
lfemur -26.122951960558527 1.6441868842037284 -15.674454777610412
ltibia 43.520533189993465
lfoot -32.73039614226304 3.739212090871697
ltoes -21.47598508201119
20
root 0 0 0 1.8503698946141407 -3.8650310206268355 2.1967578755484887
lowerback 11.971281399107275 1.1527964181052683 -0.12549439045702782
upperback -4.460356467122293 1.4447778336280062 -0.8544330129245977
thorax -11.5598232018284 0.669340975505315 -1.115220925751608
lowerneck -6.231826015948293 1.7542285669398627 4.83135453014002
upperneck 18.175267820479018 3.2888176309666832 -8.48737223087751
head 6.6960931759808595 1.2239737630600622 -3.292426300644464
rclavicle -2.0981952058202506E-15 -1.0935140011025447E-15
rhumerus 23.224544899313763 17.804190848126588 -48.4895076886438
rradius 74.8705008115802
rwrist 25.828800656896853
rhand -34.81386528785248 -58.085050373584
rfingers 7.125019999999999
rthumb -7.956652772371184 -87.99479378378004
lclavicle -1.0634228778092578E-15 -8.330891241127729E-16
lhumerus 22.42079230992576 -14.53374327820993 45.76845832516311
lradius 71.32747394190234
lwrist -21.387275246593838
lhand -45.26753807122372 -69.0141653606739
lfingers 7.125020000000012
lthumb -18.041646470506876 -39.76469537674588
rfemur -24.53024867486966 -0.7695470422028805 18.583662095547986
rtibia 44.78699649798254
rfoot -32.98578056889045 -17.844972722512082
rtoes -23.17327377548951
lfemur -26.075369968243443 1.685713242977906 -15.630623758917553
ltibia 43.96341062223053
lfoot -32.49136092859542 3.5229118498537817
ltoes -21.547342352983392
